<?xml version="1.0" encoding="UTF-8" standalone="no"?>
<!-- Created with Inkscape (http://www.inkscape.org/) -->

<svg
   xmlns:dc="http://purl.org/dc/elements/1.1/"
   xmlns:cc="http://creativecommons.org/ns#"
   xmlns:rdf="http://www.w3.org/1999/02/22-rdf-syntax-ns#"
   xmlns:svg="http://www.w3.org/2000/svg"
   xmlns="http://www.w3.org/2000/svg"
   xmlns:sodipodi="http://sodipodi.sourceforge.net/DTD/sodipodi-0.dtd"
   xmlns:inkscape="http://www.inkscape.org/namespaces/inkscape"
   version="1.1"
   id="svg83901"
   width="500"
   height="100"
   viewBox="0 0 500 100"
   sodipodi:docname="godzilla.svg"
   inkscape:version="0.92.1 r15371"
   inkscape:export-filename="C:\Users\ctcrsfsjap\Desktop\Gojira\gojira.png"
   inkscape:export-xdpi="96"
   inkscape:export-ydpi="96">
  <metadata
     id="metadata83907">
    <rdf:RDF>
      <cc:Work
         rdf:about="">
        <dc:format>image/svg+xml</dc:format>
        <dc:type
           rdf:resource="http://purl.org/dc/dcmitype/StillImage" />
        <dc:title></dc:title>
      </cc:Work>
    </rdf:RDF>
  </metadata>
  <defs
     id="defs83905" />
  <sodipodi:namedview
     pagecolor="#ffffff"
     bordercolor="#666666"
     borderopacity="1"
     objecttolerance="10"
     gridtolerance="10"
     guidetolerance="10"
     inkscape:pageopacity="0"
     inkscape:pageshadow="2"
     inkscape:window-width="1366"
     inkscape:window-height="715"
     id="namedview83903"
     showgrid="false"
     inkscape:zoom="1"
     inkscape:cx="187.73903"
     inkscape:cy="-0.78615877"
     inkscape:window-x="-8"
     inkscape:window-y="-8"
     inkscape:window-maximized="1"
     inkscape:current-layer="svg83901"
     inkscape:pagecheckerboard="true" />
  <g
     id="g83929"
     transform="translate(-2.828427)">
    <path
       style="fill:#fcfcfc;stroke-width:0.39973783"
       d="m 58.28417,96.840644 c -101.552915,6.348876 -50.7764573,3.174436 0,0 z"
       id="path83945"
       inkscape:connector-curvature="0"
       sodipodi:nodetypes="cc" />
    <path
       style="fill:#bce7cb;stroke-width:0.39973783"
       d="M 31.023928,96.348503 C 25.993536,95.369012 20.626708,90.747004 18.185159,85.291528 16.558226,81.656256 15.292251,74.739168 15.165487,68.792515 l -0.08622,-4.044623 1.260771,-1.18691 c 1.030579,-0.970201 1.612689,-1.18691 3.188236,-1.18691 1.605557,0 2.160147,0.215252 3.320668,1.288849 1.364073,1.261899 1.454775,1.283941 4.338116,1.054181 3.367683,-0.26836 4.559244,0.130558 5.191145,1.737915 0.529903,1.347901 0.241225,2.235407 -1.873133,5.758728 -1.533855,2.555984 -1.556475,2.646795 -0.965722,3.877079 0.742834,1.547012 1.634044,2.641514 2.589634,3.180354 0.655555,0.369658 0.698719,0.285551 0.454555,-0.885738 -0.365941,-1.755468 0.397956,-3.52188 1.784811,-4.127142 0.968103,-0.422507 1.419278,-0.367143 3.056884,0.37512 2.364964,1.071939 2.360915,1.071967 2.360915,-0.01842 0,-0.57663 -0.981055,-1.844125 -2.790929,-3.605794 -2.350072,-2.287485 -2.79093,-2.925322 -2.79093,-4.037939 0,-1.949844 1.356917,-3.240593 3.978881,-3.784853 4.309278,-0.894506 4.334085,-0.921837 1.957852,-2.156889 -2.922982,-1.519225 -6.256852,-4.384718 -8.090046,-6.953471 -2.003612,-2.807552 -4.241068,-7.541721 -4.561163,-9.650836 -0.493087,-3.248968 1.242752,-6.446099 4.312979,-7.943798 1.969784,-0.960887 3.479605,-0.961549 5.452048,-0.0024 2.021634,0.983082 3.052316,2.200893 4.222789,4.989474 1.384328,3.298077 1.609413,3.415443 4.574082,2.385061 4.039496,-1.403952 4.069757,-1.630175 0.524042,-3.917633 -4.074222,-2.628416 -5.621309,-4.221159 -5.621309,-5.787203 0,-1.950437 1.134917,-2.945324 5.424473,-4.755182 L 50.393152,27.69984 51.161,25.064432 c 0.688036,-2.361477 0.723715,-3.029682 0.343262,-6.428594 -0.614747,-5.492057 -0.562808,-6.212041 0.531293,-7.364816 1.47357,-1.552592 3.160578,-1.3399657 6.659009,0.839283 1.69373,1.055062 3.452062,1.846424 4.102581,1.846424 1.055376,0 1.283759,-0.307853 3.12997,-4.2191553 2.012971,-4.2645864 2.893551,-5.2181204 4.818879,-5.2181204 1.92078,0 2.822463,0.9606215 4.724153,5.0329447 2.008979,4.302062 1.871782,4.187842 5.478869,4.561394 4.015259,0.415823 8.430491,3.459999 10.887204,7.506409 0.835308,1.375828 2.071821,2.677681 3.382049,3.560773 3.990806,2.689793 5.891701,7.425006 4.961051,12.35819 -0.469529,2.488856 -0.451381,2.667232 0.39391,3.871863 0.75203,1.071722 0.88311,1.755189 0.86623,4.516726 -0.0179,2.92766 -0.14651,3.473032 -1.28283,5.439211 -2.212204,3.827796 -4.329351,6.453077 -6.778337,8.405211 -3.086775,2.460527 -5.880327,3.76059 -9.975758,4.642524 l -3.310172,0.712826 -0.108009,6.313316 c -0.104578,6.112778 -0.07616,6.37497 0.894705,8.25442 0.55149,1.06761 1.128324,2.716405 1.281858,3.663989 0.258622,1.596217 0.407572,1.766802 2.026036,2.320372 4.098402,1.401796 6.179005,4.577173 5.894653,8.996309 -0.140004,2.175813 -0.05037,2.169457 -29.73358,2.108197 C 45.290711,96.75307 32.094866,96.55703 31.023928,96.348503 Z M 83.415481,48.621561 c 1.063819,-0.567984 1.934215,-1.214232 1.934215,-1.436107 0,-0.225908 -1.199435,-0.403402 -2.726024,-0.403402 h -2.726024 v 1.436107 c 0,1.793616 0.752418,1.879897 3.517833,0.403402 z"
       id="path83943"
       inkscape:connector-curvature="0" />
    <path
       style="fill:#78cd96;stroke-width:0.39973783"
       d="M 31.218644,96.235149 C 25.186138,94.830447 19.505237,89.280357 17.432244,82.766207 16.563724,80.036976 15.25193,71.138076 15.25193,67.975465 c 0,-3.066467 0.777357,-4.445761 2.92683,-5.193194 1.691931,-0.588332 3.563101,-0.02035 4.901903,1.487898 0.903727,1.018118 1.036941,1.042638 4.178494,0.769064 3.030831,-0.263932 3.30714,-0.221079 4.186395,0.649235 0.517763,0.512498 0.941388,1.298848 0.941388,1.747439 0,0.448595 -0.806896,2.265783 -1.793101,4.038194 -2.085015,3.747193 -2.067986,4.400634 0.179562,6.890003 1.975359,2.187893 2.441125,2.142635 2.1354,-0.207485 -0.206193,-1.585015 -0.108375,-2.011038 0.659481,-2.872214 1.09683,-1.230133 2.249354,-1.277044 4.299577,-0.175008 0.855563,0.459882 1.724804,0.725948 1.931645,0.591257 0.996254,-0.648734 0.228538,-2.12042 -2.545941,-4.880478 -3.278218,-3.261182 -3.554463,-4.149119 -1.848525,-5.941734 0.838681,-0.881294 1.728164,-1.243464 4.101407,-1.669975 1.666759,-0.299543 3.107831,-0.676509 3.202383,-0.837702 0.09455,-0.161193 -1.093915,-0.956345 -2.641038,-1.767011 -3.648373,-1.91168 -6.396359,-4.497301 -8.794131,-8.274521 -4.299329,-6.772747 -4.633428,-11.184279 -1.09493,-14.457734 2.370603,-2.193038 5.789305,-2.322404 8.288864,-0.313656 0.768346,0.617475 1.896203,2.246938 2.656979,3.838651 0.727051,1.521155 1.555747,2.955868 1.841546,3.188251 0.368974,0.300013 1.401495,0.136036 3.561205,-0.565562 4.016352,-1.304742 3.966863,-1.937467 -0.374823,-4.792156 -4.236394,-2.785459 -4.808624,-3.377816 -4.808624,-4.977761 0,-1.996637 0.982881,-2.863401 5.257333,-4.636237 l 3.89432,-1.615176 0.875083,-2.609654 c 0.79704,-2.376915 0.840551,-2.920697 0.487887,-6.097342 -0.585501,-5.27394 -0.508679,-6.84969 0.379569,-7.785573 1.509838,-1.5908081 2.453942,-1.473081 6.173945,0.769874 5.009677,3.020558 5.040722,3.01099 7.646544,-2.3565535 1.511445,-3.1133194 2.456806,-4.5911225 3.149781,-4.9237959 2.543385,-1.2209899 3.848777,-0.2158487 6.160484,4.7435193 l 1.896799,4.0692651 2.817455,0.427662 c 5.133571,0.779226 9.192224,3.487857 11.668404,7.787168 0.739754,1.284406 1.969109,2.567455 3.476503,3.628337 3.947415,2.778134 5.675607,7.486192 4.554844,12.408601 -0.438139,1.924316 -0.407444,2.130709 0.534373,3.592976 0.82399,1.279339 0.99921,2.02816 0.99921,4.270274 0,2.420682 -0.16727,3.020478 -1.525059,5.468606 -4.351054,7.845064 -9.841781,11.705353 -18.822765,13.233457 l -1.46037,0.248483 0.0019,6.443887 c 0.0019,6.127414 0.04909,6.524497 0.960908,8.085156 0.527404,0.902696 1.158852,2.682558 1.403221,3.955253 0.430517,2.242169 0.489267,2.321561 1.893002,2.558068 3.07443,0.517983 5.687012,3.601957 6.153108,7.263317 0.167701,1.317361 0.03271,1.717494 -0.880187,2.608906 l -1.078228,1.0529 -27.300732,-0.05337 C 40.835008,96.748508 32.774109,96.597347 31.218644,96.235149 Z M 73.256858,88.32658 c 1.959716,-2.503319 2.824247,-5.483282 2.886692,-9.950171 l 0.05449,-3.898005 h -5.239902 -5.239901 l -0.316422,1.604628 c -0.174033,0.882546 -0.679913,2.224309 -1.124181,2.981695 -0.68112,1.161175 -0.741089,1.578577 -0.382516,2.662346 0.233885,0.706901 0.425245,1.723283 0.425245,2.258631 0,0.630181 0.308928,1.099115 0.876222,1.330041 3.310912,1.34777 4.379143,1.998318 5.24475,3.19405 0.539686,0.745508 1.122935,1.355472 1.296103,1.355472 0.173173,0 0.856911,-0.692409 1.519416,-1.538687 z m 2.941186,-21.23387 v -3.282531 l -4.44564,-0.116652 c -2.445099,-0.06416 -4.572493,0.02815 -4.727537,0.205158 -0.155041,0.176994 -0.404324,1.758427 -0.553959,3.514293 l -0.272062,3.192479 4.999599,-0.115106 4.999599,-0.11511 z m -0.01059,-7.57279 c 0.396239,-0.675512 -0.849456,-3.203294 -1.954555,-3.966216 -2.749017,-1.89782 -6.797073,0.197034 -6.797073,3.517461 0,0.796556 0.225212,0.841009 4.260768,0.841009 2.343423,0 4.36431,-0.176514 4.49086,-0.392254 z m 7.931473,-10.980061 c 0.960433,-0.628284 1.717882,-1.326975 1.683222,-1.552649 -0.03571,-0.232539 -1.370684,-0.410317 -3.081116,-0.410317 h -3.018098 l -0.122437,1.801818 -0.122438,1.801823 1.457313,-0.249173 c 0.801521,-0.137046 2.243121,-0.763221 3.203554,-1.391502 z"
       id="path83941"
       inkscape:connector-curvature="0" />
    <path
       style="fill:#9ca19e;stroke-width:0.39973783"
       d="M 31.218644,96.235149 C 25.186138,94.830447 19.505237,89.280357 17.432244,82.766207 16.563724,80.036976 15.25193,71.138076 15.25193,67.975465 c 0,-3.066467 0.777357,-4.445761 2.92683,-5.193194 1.691931,-0.588332 3.563101,-0.02035 4.901903,1.487898 0.903727,1.018118 1.036941,1.042638 4.178494,0.769064 3.030831,-0.263932 3.30714,-0.221079 4.186395,0.649235 0.517763,0.512498 0.941388,1.298848 0.941388,1.747439 0,0.448595 -0.806896,2.265783 -1.793101,4.038194 -2.085015,3.747193 -2.067986,4.400634 0.179562,6.890003 1.975359,2.187893 2.441125,2.142635 2.1354,-0.207485 -0.206193,-1.585015 -0.108375,-2.011038 0.659481,-2.872214 1.09683,-1.230133 2.249354,-1.277044 4.299577,-0.175008 0.855563,0.459882 1.724804,0.725948 1.931645,0.591257 0.996254,-0.648734 0.228538,-2.12042 -2.545941,-4.880478 -3.278218,-3.261182 -3.554463,-4.149119 -1.848525,-5.941734 0.838681,-0.881294 1.728164,-1.243464 4.101407,-1.669975 1.666759,-0.299543 3.107831,-0.676509 3.202383,-0.837702 0.09455,-0.161193 -1.093915,-0.956345 -2.641038,-1.767011 -3.648373,-1.91168 -6.396359,-4.497301 -8.794131,-8.274521 -4.299329,-6.772747 -4.633428,-11.184279 -1.09493,-14.457734 2.370603,-2.193038 5.789305,-2.322404 8.288864,-0.313656 0.768346,0.617475 1.896203,2.246938 2.656979,3.838651 0.727051,1.521155 1.555747,2.955868 1.841546,3.188251 0.368974,0.300013 1.401495,0.136036 3.561205,-0.565562 4.016352,-1.304742 3.966863,-1.937467 -0.374823,-4.792156 -4.236394,-2.785459 -4.808624,-3.377816 -4.808624,-4.977761 0,-1.996637 0.982881,-2.863401 5.257333,-4.636237 l 3.89432,-1.615176 0.875083,-2.609654 c 0.79704,-2.376915 0.840551,-2.920697 0.487887,-6.097342 -0.585501,-5.27394 -0.508679,-6.84969 0.379569,-7.785573 1.509838,-1.5908081 2.453942,-1.473081 6.173945,0.769874 5.009677,3.020558 5.040722,3.01099 7.646544,-2.3565535 1.511445,-3.1133194 2.456806,-4.5911225 3.149781,-4.9237959 2.543385,-1.2209899 3.848777,-0.2158487 6.160484,4.7435193 l 1.896799,4.0692651 2.817455,0.427662 c 5.133571,0.779226 9.192224,3.487857 11.668404,7.787168 0.739754,1.284406 1.969109,2.567455 3.476503,3.628337 3.947415,2.778134 5.675607,7.486192 4.554844,12.408601 -0.438139,1.924316 -0.407444,2.130709 0.534373,3.592976 0.82399,1.279339 0.99921,2.02816 0.99921,4.270274 0,2.420682 -0.16727,3.020478 -1.525059,5.468606 -4.351054,7.845064 -9.841781,11.705353 -18.822765,13.233457 l -1.46037,0.248483 0.0019,6.443887 c 0.0019,6.127414 0.04909,6.524497 0.960908,8.085156 0.527404,0.902696 1.158852,2.682558 1.403221,3.955253 0.430517,2.242169 0.489267,2.321561 1.893002,2.558068 3.07443,0.517983 5.687012,3.601957 6.153108,7.263317 0.167701,1.317361 0.03271,1.717494 -0.880187,2.608906 l -1.078228,1.0529 -27.300732,-0.05337 c -19.8262,-0.03877 -27.887099,-0.189927 -29.442564,-0.552125 z m 12.851257,-2.832086 c 0,-0.08528 -0.262867,-0.817912 -0.584148,-1.628086 -0.678729,-1.71154 -0.786713,-7.484715 -0.182845,-9.775466 0.560368,-2.12573 1.638364,-3.377417 2.959759,-3.436642 0.961627,-0.0431 1.144552,-0.2455 1.312122,-1.451801 0.271736,-1.956163 2.694255,-3.248138 6.090417,-3.248138 2.01109,0 2.865223,0.24424 5.049839,1.444005 2.574395,1.413827 3.234884,1.412227 3.265707,-0.0079 0.05465,-2.517688 2.086386,-18.213068 2.485846,-19.203415 1.630287,-4.041838 6.1322,-6.108314 10.076359,-4.625275 l 1.460371,0.549114 v -2.157098 c 0,-3.126155 0.362425,-4.581217 1.418148,-5.693556 0.893302,-0.941207 1.206215,-0.990756 7.254277,-1.148701 5.294348,-0.138262 6.56959,-0.295965 7.853419,-0.971195 5.621366,-2.956556 5.482611,-11.103177 -0.241518,-14.180014 -1.046123,-0.562313 -2.028306,-1.665208 -3.204005,-3.597781 -0.932488,-1.53279 -2.460775,-3.380541 -3.396198,-4.106114 -2.96188,-2.297422 -4.806039,-2.616184 -14.101525,-2.437441 -9.761947,0.187713 -11.030892,0.568156 -14.241849,4.269864 -2.273496,2.62095 -3.148943,5.07077 -3.148943,8.811888 0,3.882745 -0.700503,10.658093 -1.510242,14.607245 l -0.687537,3.353165 1.282142,0.253432 c 0.705176,0.139384 1.832476,0.741339 2.505107,1.337672 1.11369,0.987361 1.202652,1.24039 0.99563,2.831778 -0.196453,1.510132 -0.119937,1.783448 0.563251,2.011912 2.579952,0.862756 1.208844,5.71743 -2.211203,7.829197 -1.463505,0.903668 -2.067182,1.023111 -4.715295,0.932985 l -3.036914,-0.103358 -3.137717,9.774124 c -3.714176,11.569817 -3.963913,11.949725 -7.625366,11.59991 -1.230479,-0.11756 -3.200956,-0.67861 -4.378837,-1.246779 -3.388388,-1.634446 -5.113247,-3.82794 -8.607729,-10.946403 -3.043079,-6.198928 -3.92708,-7.318074 -4.938621,-6.252285 -0.663787,0.699384 1.514759,13.469778 2.799302,16.409198 2.153632,4.928154 6.455224,8.606857 11.383074,9.734759 2.150707,0.492261 11.195722,0.869695 11.195722,0.467178 z M 33.706546,88.457939 c -0.387745,-1.064635 0.155727,-1.944567 1.112603,-1.801404 0.643627,0.0963 0.877963,0.405151 0.877963,1.15715 0,0.751999 -0.234336,1.060852 -0.877963,1.157149 -0.526621,0.07879 -0.971861,-0.126459 -1.112603,-0.512895 z m -8.470212,-6.183525 c -0.36114,-0.991586 0.154797,-1.846423 1.114409,-1.846423 0.959612,0 1.475549,0.854837 1.114409,1.846423 -0.123287,0.338511 -0.624771,0.615475 -1.114409,0.615475 -0.489637,0 -0.991122,-0.276964 -1.114409,-0.615475 z M 52.314298,69.862345 c -0.512763,-1.050442 -0.134249,-1.743844 0.95193,-1.743844 1.119307,0 1.609773,0.982035 0.924789,1.851647 -0.643669,0.817165 -1.447751,0.77098 -1.876719,-0.107803 z M 63.790536,47.728303 c -0.465433,-0.490394 -0.25146,-1.356568 0.335115,-1.356568 0.321281,0 0.584148,0.266066 0.584148,0.591258 0,0.685495 -0.555829,1.148233 -0.919263,0.76531 z m -6.730129,-5.669226 c -0.370358,-1.016895 0.861965,-2.154092 1.717859,-1.585255 0.370809,0.246445 0.6742,0.797242 0.6742,1.223994 0,1.03536 -2.034634,1.34264 -2.392059,0.361261 z M 86.907425,39.928248 C 85.880356,39.534482 84.1814,37.626696 84.1814,36.867152 c 0,-0.403924 0.425988,-1.028493 0.946636,-1.387931 0.885868,-0.61157 1.048366,-0.592422 2.531308,0.298279 l 1.584673,0.951801 1.584673,-0.951801 c 1.482941,-0.890701 1.64544,-0.909849 2.531308,-0.298279 0.520647,0.359438 0.946635,0.986366 0.946635,1.393174 0,0.788982 -1.206367,2.125083 -2.603065,2.883005 -0.86959,0.471884 -3.745795,0.57554 -4.796143,0.172848 z M 69.994948,26.031768 c -0.728643,-0.767718 -0.826628,-3.888712 -0.144647,-4.607266 0.600699,-0.632913 1.969553,-0.632913 2.570252,0 0.257025,0.270809 0.467318,1.341735 0.467318,2.379835 0,2.690701 -1.417423,3.782058 -2.892923,2.227431 z m 12.461825,0 c -0.728643,-0.767718 -0.826628,-3.888712 -0.144646,-4.607266 0.600699,-0.632913 1.969552,-0.632913 2.570251,0 0.257025,0.270809 0.467318,1.341735 0.467318,2.379835 0,2.690701 -1.417423,3.782058 -2.892923,2.227431 z m 4.06122,67.089055 c 0,-1.808539 -2.047844,-3.642916 -4.089037,-3.662799 -2.032566,-0.01978 -3.412717,-0.785272 -3.710465,-2.057938 -0.228009,-0.974559 -0.280314,-0.938824 -1.115427,0.762126 -0.481911,0.98155 -1.587049,2.597171 -2.455864,3.590268 l -1.579661,1.805634 h 6.475227 c 4.323482,0 6.475227,-0.145314 6.475227,-0.437291 z M 73.256858,88.32658 c 1.959716,-2.503319 2.824247,-5.483282 2.886692,-9.950171 l 0.05449,-3.898005 h -5.239902 -5.239901 l -0.316422,1.604628 c -0.174033,0.882546 -0.679913,2.224309 -1.124181,2.981695 -0.68112,1.161175 -0.741089,1.578577 -0.382516,2.662346 0.233885,0.706901 0.425245,1.723283 0.425245,2.258631 0,0.630181 0.308928,1.099115 0.876222,1.330041 3.310912,1.34777 4.379143,1.998318 5.24475,3.19405 0.539686,0.745508 1.122935,1.355472 1.296103,1.355472 0.173173,0 0.856911,-0.692409 1.519416,-1.538687 z m 2.941186,-21.23387 v -3.282531 l -4.44564,-0.116652 c -2.445099,-0.06416 -4.572493,0.02815 -4.727537,0.205158 -0.155041,0.176994 -0.404324,1.758427 -0.553959,3.514293 l -0.272062,3.192479 4.999599,-0.115106 4.999599,-0.11511 z m -0.01059,-7.57279 c 0.396239,-0.675512 -0.849456,-3.203294 -1.954555,-3.966216 -2.749017,-1.89782 -6.797073,0.197034 -6.797073,3.517461 0,0.796556 0.225212,0.841009 4.260768,0.841009 2.343423,0 4.36431,-0.176514 4.49086,-0.392254 z m 7.931473,-10.980061 c 0.960433,-0.628284 1.717882,-1.326975 1.683222,-1.552649 -0.03571,-0.232539 -1.370684,-0.410317 -3.081116,-0.410317 h -3.018098 l -0.122437,1.801818 -0.122438,1.801823 1.457313,-0.249173 c 0.801521,-0.137046 2.243121,-0.763221 3.203554,-1.391502 z"
       id="path83939"
       inkscape:connector-curvature="0" />
    <path
       style="fill:#68b282;stroke-width:0.39973783"
       d="M 31.888816,96.197785 C 25.482133,94.562387 20.265912,89.743879 17.94984,83.321591 17.176983,81.178521 15.25193,69.563336 15.25193,67.043222 c 0,-1.049364 0.308871,-1.77518 1.118396,-2.628117 2.01417,-2.122185 4.120852,-2.112715 6.435903,0.02893 1.320838,1.221906 1.377339,1.233989 4.490028,0.960481 2.722724,-0.239243 3.257906,-0.17635 3.926804,0.461458 1.170207,1.115814 0.950695,2.339825 -1.024345,5.711825 -2.135199,3.645435 -2.097447,4.284363 0.416479,7.048746 2.121802,2.33319 2.794063,2.226094 2.61073,-0.415909 -0.234623,-3.381133 1.515087,-4.37167 4.699074,-2.660208 1.545539,0.83076 1.634106,0.836036 2.126362,0.126735 0.917379,-1.321871 0.559885,-2.042374 -2.407089,-4.851314 -2.340747,-2.216065 -2.92074,-2.997952 -2.92074,-3.937424 0,-1.705205 1.395933,-2.639803 5.117564,-3.426281 1.770216,-0.374094 3.362533,-0.831851 3.538483,-1.017236 0.175951,-0.185389 -1.206864,-1.134184 -3.072922,-2.108443 -4.608024,-2.405812 -7.849892,-5.86052 -10.365343,-11.045859 -1.506569,-3.105635 -1.838127,-4.180757 -1.838127,-5.960365 0,-4.869265 4.487026,-8.103887 8.834227,-6.368446 1.727306,0.689556 2.764238,1.958201 4.236375,5.183038 1.585625,3.473441 1.687335,3.508926 5.838354,2.036854 2.068091,-0.733406 2.732723,-1.159196 2.824361,-1.809402 0.132715,-0.941662 -0.157101,-1.202167 -4.701696,-4.226177 -5.351931,-3.561218 -5.042535,-5.34191 1.420492,-8.175467 l 4.237844,-1.85798 0.88378,-2.77471 c 0.763585,-2.397348 0.837766,-3.150693 0.54544,-5.53927 -0.591259,-4.831162 -0.46398,-7.37767 0.415041,-8.303831 1.172888,-1.235787 2.219514,-1.017048 5.844624,1.221492 3.306293,2.041671 4.377438,2.373433 5.419488,1.67856 0.305104,-0.203451 1.531815,-2.370172 2.726024,-4.8149335 1.694723,-3.4693968 2.402909,-4.5286751 3.226542,-4.8261532 1.936626,-0.6994652 2.831809,0.1756225 5.139802,5.0244295 l 2.125306,4.4649932 2.654882,0.258596 c 5.002399,0.487254 10.009996,3.982296 12.215405,8.525715 0.419488,0.864204 1.214245,1.69636 1.910207,2.000096 1.634765,0.713455 3.984092,3.197073 4.875541,5.154231 0.940474,2.064798 1.217578,5.842144 0.599269,8.168958 -0.455775,1.715167 -0.426046,1.877583 0.604208,3.30075 0.776827,1.073085 1.132157,2.114072 1.255187,3.677224 0.14972,1.90226 -0.008,2.539678 -1.23331,4.996775 -3.478012,6.972206 -9.373114,11.941974 -15.774527,13.298464 -1.20259,0.254831 -2.799884,0.59234 -3.549541,0.750013 l -1.363012,0.28668 -0.107304,6.459154 c -0.103866,6.25229 -0.07608,6.515286 0.867549,8.211817 0.536166,0.963968 1.211496,2.850529 1.500731,4.192358 0.498847,2.314262 0.594394,2.451833 1.858479,2.675828 3.269827,0.579412 5.734718,3.288329 6.100122,6.70404 0.167152,1.562497 0.05176,1.97365 -0.808196,2.879723 l -1.003189,1.056987 -26.791156,-0.03418 C 39.38318,96.778974 33.698883,96.659834 31.888816,96.197789 Z m 12.181085,-2.794722 c 0,-0.08528 -0.262867,-0.817912 -0.584148,-1.628086 -0.678729,-1.71154 -0.786713,-7.484715 -0.182845,-9.775466 0.560368,-2.12573 1.638364,-3.377417 2.959759,-3.436642 0.961627,-0.0431 1.144552,-0.2455 1.312122,-1.451801 0.271736,-1.956163 2.694255,-3.248138 6.090417,-3.248138 2.01109,0 2.865223,0.24424 5.049839,1.444005 2.574395,1.413827 3.234884,1.412227 3.265707,-0.0079 0.05465,-2.517688 2.086386,-18.213068 2.485846,-19.203415 1.630287,-4.041838 6.1322,-6.108314 10.076359,-4.625275 l 1.460371,0.549114 v -2.157098 c 0,-3.126155 0.362425,-4.581217 1.418148,-5.693556 0.893302,-0.941207 1.206215,-0.990756 7.254277,-1.148701 5.294348,-0.138262 6.56959,-0.295965 7.853419,-0.971195 5.621366,-2.956556 5.482611,-11.103177 -0.241518,-14.180014 -1.046123,-0.562313 -2.028306,-1.665208 -3.204005,-3.597781 -0.932488,-1.53279 -2.460775,-3.380541 -3.396198,-4.106114 -2.96188,-2.297422 -4.806039,-2.616184 -14.101525,-2.437441 -9.761947,0.187713 -11.030892,0.568156 -14.241849,4.269864 -2.273496,2.62095 -3.148943,5.07077 -3.148943,8.811888 0,3.882745 -0.700503,10.658093 -1.510242,14.607245 l -0.687537,3.353165 1.282142,0.253432 c 0.705176,0.139384 1.832476,0.741339 2.505107,1.337672 1.11369,0.987361 1.202652,1.24039 0.99563,2.831778 -0.196453,1.510132 -0.119937,1.783448 0.563251,2.011912 2.579952,0.862756 1.208844,5.71743 -2.211203,7.829197 -1.463505,0.903668 -2.067182,1.023111 -4.715295,0.932985 l -3.036914,-0.103358 -3.137717,9.774124 c -3.714176,11.569817 -3.963913,11.949725 -7.625366,11.59991 -1.230479,-0.11756 -3.200956,-0.67861 -4.378837,-1.246779 -3.388388,-1.634446 -5.113247,-3.82794 -8.607729,-10.946403 -3.043079,-6.198928 -3.92708,-7.318074 -4.938621,-6.252285 -0.663787,0.699384 1.514759,13.469778 2.799302,16.409198 2.153632,4.928154 6.455224,8.606857 11.383074,9.734759 2.150707,0.492261 11.195722,0.869695 11.195722,0.467178 z M 33.706546,88.457939 c -0.387745,-1.064635 0.155727,-1.944567 1.112603,-1.801404 0.643627,0.0963 0.877963,0.405151 0.877963,1.15715 0,0.751999 -0.234336,1.060852 -0.877963,1.157149 -0.526621,0.07879 -0.971861,-0.126459 -1.112603,-0.512895 z m -8.470212,-6.183525 c -0.36114,-0.991586 0.154797,-1.846423 1.114409,-1.846423 0.959612,0 1.475549,0.854837 1.114409,1.846423 -0.123287,0.338511 -0.624771,0.615475 -1.114409,0.615475 -0.489637,0 -0.991122,-0.276964 -1.114409,-0.615475 z M 52.314298,69.862345 c -0.512763,-1.050442 -0.134249,-1.743844 0.95193,-1.743844 1.119307,0 1.609773,0.982035 0.924789,1.851647 -0.643669,0.817165 -1.447751,0.77098 -1.876719,-0.107803 z M 63.790536,47.728303 c -0.465433,-0.490394 -0.25146,-1.356568 0.335115,-1.356568 0.321281,0 0.584148,0.266066 0.584148,0.591258 0,0.685495 -0.555829,1.148233 -0.919263,0.76531 z m -6.730129,-5.669226 c -0.370358,-1.016895 0.861965,-2.154092 1.717859,-1.585255 0.370809,0.246445 0.6742,0.797242 0.6742,1.223994 0,1.03536 -2.034634,1.34264 -2.392059,0.361261 z M 86.907425,39.928248 C 85.880356,39.534482 84.1814,37.626696 84.1814,36.867152 c 0,-0.403924 0.425988,-1.028493 0.946636,-1.387931 0.885868,-0.61157 1.048366,-0.592422 2.531308,0.298279 l 1.584673,0.951801 1.584673,-0.951801 c 1.482941,-0.890701 1.64544,-0.909849 2.531308,-0.298279 0.520647,0.359438 0.946635,0.986366 0.946635,1.393174 0,0.788982 -1.206367,2.125083 -2.603065,2.883005 -0.86959,0.471884 -3.745795,0.57554 -4.796143,0.172848 z M 69.994948,26.031768 c -0.728643,-0.767718 -0.826628,-3.888712 -0.144647,-4.607266 0.600699,-0.632913 1.969553,-0.632913 2.570252,0 0.257025,0.270809 0.467318,1.341735 0.467318,2.379835 0,2.690701 -1.417423,3.782058 -2.892923,2.227431 z m 12.461825,0 c -0.728643,-0.767718 -0.826628,-3.888712 -0.144646,-4.607266 0.600699,-0.632913 1.969552,-0.632913 2.570251,0 0.257025,0.270809 0.467318,1.341735 0.467318,2.379835 0,2.690701 -1.417423,3.782058 -2.892923,2.227431 z m 4.06122,67.089055 c 0,-1.808539 -2.047844,-3.642916 -4.089037,-3.662799 -2.032566,-0.01978 -3.412717,-0.785272 -3.710465,-2.057938 -0.228009,-0.974559 -0.280314,-0.938824 -1.115427,0.762126 -0.481911,0.98155 -1.587049,2.597171 -2.455864,3.590268 l -1.579661,1.805634 h 6.475227 c 4.323482,0 6.475227,-0.145314 6.475227,-0.437291 z M 73.719465,88.043117 C 75.730371,85.25135 76.39276,82.742799 76.39276,77.918976 V 73.86293 h -5.408709 -5.408709 l -0.267064,1.538686 c -0.146886,0.846277 -0.67031,2.277256 -1.163168,3.179951 -0.880848,1.613331 -0.885658,1.688407 -0.28242,4.410901 0.503275,2.271364 0.752679,2.769635 1.386305,2.769635 1.351675,0 4.119653,1.67622 5.174745,3.133697 0.560767,0.774632 1.21317,1.341907 1.449782,1.260615 0.236611,-0.0813 1.067285,-1.032278 1.845943,-2.113298 z M 76.39276,66.887552 v -3.692847 h -4.83367 -4.833669 l -0.212712,1.538686 c -0.116993,0.846278 -0.324085,2.508059 -0.460207,3.692847 l -0.247496,2.154161 h 5.293877 5.293877 z m -0.07169,-8.117739 c 0.09895,-1.083904 -0.141025,-1.625727 -1.226711,-2.769636 -1.127113,-1.187558 -1.629138,-1.421861 -3.043762,-1.42058 -2.254297,0.0021 -4.018969,1.173738 -4.610123,3.061005 -0.809076,2.58299 -0.572243,2.72354 4.369162,2.592821 l 4.388413,-0.116091 z m 5.972965,-8.925427 c 2.128472,-0.764136 4.470824,-2.719852 4.071963,-3.399828 -0.175929,-0.299925 -1.371739,-0.483139 -3.15334,-0.483139 -3.294669,0 -4.093869,0.513031 -4.093869,2.627978 0,2.111766 0.37542,2.260149 3.175246,1.254989 z"
       id="path83937"
       inkscape:connector-curvature="0" />
    <path
       style="fill:#5a986f;stroke-width:0.39973783"
       d="M 31.888816,96.197785 C 25.482133,94.562387 20.265912,89.743879 17.94984,83.321591 17.176983,81.178521 15.25193,69.563336 15.25193,67.043222 c 0,-1.049364 0.308871,-1.77518 1.118396,-2.628117 2.01417,-2.122185 4.120852,-2.112715 6.435903,0.02893 1.320838,1.221906 1.377339,1.233989 4.490028,0.960481 2.722724,-0.239243 3.257906,-0.17635 3.926804,0.461458 1.170207,1.115814 0.950695,2.339825 -1.024345,5.711825 -2.135199,3.645435 -2.097447,4.284363 0.416479,7.048746 2.121802,2.33319 2.794063,2.226094 2.61073,-0.415909 -0.234623,-3.381133 1.515087,-4.37167 4.699074,-2.660208 1.545539,0.83076 1.634106,0.836036 2.126362,0.126735 0.917379,-1.321871 0.559885,-2.042374 -2.407089,-4.851314 -2.340747,-2.216065 -2.92074,-2.997952 -2.92074,-3.937424 0,-1.705205 1.395933,-2.639803 5.117564,-3.426281 1.770216,-0.374094 3.362533,-0.831851 3.538483,-1.017236 0.175951,-0.185389 -1.206864,-1.134184 -3.072922,-2.108443 -4.608024,-2.405812 -7.849892,-5.86052 -10.365343,-11.045859 -1.506569,-3.105635 -1.838127,-4.180757 -1.838127,-5.960365 0,-4.869265 4.487026,-8.103887 8.834227,-6.368446 1.727306,0.689556 2.764238,1.958201 4.236375,5.183038 1.585625,3.473441 1.687335,3.508926 5.838354,2.036854 2.068091,-0.733406 2.732723,-1.159196 2.824361,-1.809402 0.132715,-0.941662 -0.157101,-1.202167 -4.701696,-4.226177 -5.351931,-3.561218 -5.042535,-5.34191 1.420492,-8.175467 l 4.237844,-1.85798 0.88378,-2.77471 c 0.763585,-2.397348 0.837766,-3.150693 0.54544,-5.53927 -0.591259,-4.831162 -0.46398,-7.37767 0.415041,-8.303831 1.172888,-1.235787 2.219514,-1.017048 5.844624,1.221492 3.306293,2.041671 4.377438,2.373433 5.419488,1.67856 0.305104,-0.203451 1.531815,-2.370172 2.726024,-4.8149335 1.694723,-3.4693968 2.402909,-4.5286751 3.226542,-4.8261532 1.936626,-0.6994652 2.831809,0.1756225 5.139802,5.0244295 l 2.125306,4.4649932 2.654882,0.258596 c 5.002399,0.487254 10.009996,3.982296 12.215405,8.525715 0.419488,0.864204 1.214245,1.69636 1.910207,2.000096 1.634765,0.713455 3.984092,3.197073 4.875541,5.154231 0.940474,2.064798 1.217578,5.842144 0.599269,8.168958 -0.455775,1.715167 -0.426046,1.877583 0.604208,3.30075 0.776827,1.073085 1.132157,2.114072 1.255187,3.677224 0.14972,1.90226 -0.008,2.539678 -1.23331,4.996775 -3.478012,6.972206 -9.373114,11.941974 -15.774527,13.298464 -1.20259,0.254831 -2.799884,0.59234 -3.549541,0.750013 l -1.363012,0.28668 -0.107304,6.459154 c -0.103866,6.25229 -0.07608,6.515286 0.867549,8.211817 0.536166,0.963968 1.211496,2.850529 1.500731,4.192358 0.498847,2.314262 0.594394,2.451833 1.858479,2.675828 3.269827,0.579412 5.734718,3.288329 6.100122,6.70404 0.167152,1.562497 0.05176,1.97365 -0.808196,2.879723 l -1.003189,1.056987 -26.791156,-0.03418 C 39.38318,96.778974 33.698883,96.659834 31.888816,96.197789 Z m 54.821229,-2.635129 c 0.401874,-0.685122 -0.919508,-3.078144 -2.108233,-3.817998 -0.618601,-0.385012 -1.895054,-0.700024 -2.836561,-0.700024 -1.986602,0 -2.646467,-0.532 -2.646467,-2.133645 0,-1.631213 -0.496394,-1.42452 -1.428861,0.594959 -0.442859,0.959114 -1.616868,2.694186 -2.608907,3.855714 -0.992043,1.161527 -1.803713,2.223221 -1.803713,2.359318 0,0.431723 13.177738,0.276406 13.432742,-0.158324 z M 44.459333,93.403063 c 0,-0.08528 -0.262867,-0.817912 -0.584148,-1.628086 -0.811938,-2.047449 -0.783943,-8.342367 0.04683,-10.530022 0.694205,-1.828033 1.724138,-2.637566 2.868699,-2.254815 1.065313,0.356249 1.27596,1.489592 0.595695,3.20501 -0.893449,2.252997 -0.783901,7.125672 0.198363,8.823179 1.338693,2.313471 2.429785,2.539785 12.244618,2.539785 6.101169,0 8.774729,-0.136984 8.774729,-0.449588 0,-0.878758 -1.311233,-2.76984 -2.22456,-3.208296 -0.510149,-0.244902 -1.581281,-0.44528 -2.380299,-0.44528 -2.343781,0 -3.182247,-0.895211 -3.192334,-3.408374 -0.02426,-6.043016 -4.148156,-9.210564 -9.886226,-7.593561 -2.01798,0.56867 -2.956479,0.06521 -2.956479,-1.586028 0,-1.601699 2.836877,-2.718978 6.419725,-2.528349 2.364943,0.125828 3.146124,0.366015 4.87646,1.499333 1.330915,0.871713 2.194126,1.208607 2.438098,0.951552 0.207731,-0.218871 0.874294,-4.780833 1.481247,-10.13769 1.006374,-8.882064 1.19949,-9.902935 2.193021,-11.592954 1.410355,-2.399042 3.787226,-3.768735 6.505411,-3.748806 1.090799,0.008 2.421379,0.278416 2.956849,0.600933 0.535469,0.322517 1.105013,0.59294 1.265654,0.600933 0.16064,0.008 0.292074,-1.36159 0.292074,-3.043526 0,-5.825474 0.759992,-6.379208 8.75539,-6.379208 4.244501,0 6.042922,-0.160382 7.121158,-0.635058 6.276924,-2.763314 6.273583,-11.599223 -0.0057,-15.002063 -0.976092,-0.528962 -1.978482,-1.657482 -3.029131,-3.410278 -1.717738,-2.865705 -3.306239,-4.337148 -6.130528,-5.678771 -1.581371,-0.751197 -2.764158,-0.899839 -8.323374,-1.046004 -10.439326,-0.274475 -14.203541,0.583764 -17.418832,3.971484 -2.642164,2.783855 -3.254471,4.7309 -3.600248,11.448223 -0.327427,6.360799 -0.834371,10.554889 -1.687781,13.963505 -0.58221,2.325414 -0.584765,2.319731 1.226884,2.728981 1.903462,0.429995 3.231102,1.720165 3.231102,3.139913 0,1.49779 -0.85302,1.915463 -2.491376,1.219878 -0.664526,-0.282133 -2.576717,-0.776355 -4.249314,-1.098269 -5.692092,-1.095532 -8.963137,-3.690799 -11.411369,-9.053852 -0.756231,-1.656585 -1.701461,-3.196079 -2.10051,-3.421096 -2.240765,-1.263533 -5.060501,0.390759 -5.060501,2.968911 0,2.197939 2.384854,6.875897 5.0165,9.840002 3.74358,4.216509 9.393683,6.865179 14.679292,6.881399 2.152502,0.0066 3.053737,-0.666838 4.110172,-3.071308 0.651251,-1.482268 1.879298,-1.769046 2.830945,-0.661094 0.930684,1.083547 0.5339,2.939593 -1.029498,4.815694 -1.789421,2.147333 -3.117735,2.699119 -6.653252,2.763797 l -3.114765,0.05698 -3.045717,9.642434 C 40.43841,84.767213 40.203766,85.133187 36.69781,84.86102 33.90445,84.644168 30.669514,83.057085 28.642069,80.908812 27.617103,79.822758 26.018031,77.09955 24.20744,73.356661 c -3.082707,-6.372627 -3.672052,-7.289742 -4.684445,-7.289742 -1.588709,0 -1.633958,0.860417 -0.431774,8.210369 1.57423,9.624576 3.359935,13.264628 8.143479,16.599991 3.079241,2.147025 5.244997,2.649962 11.480496,2.66603 3.159268,0.0081 5.744123,-0.05497 5.744123,-0.140246 z M 87.102141,39.641515 c -2.384092,-1.108797 -3.181987,-3.083949 -1.655087,-4.097085 0.505849,-0.335644 0.857164,-0.320288 1.363013,0.05958 1.374808,1.03241 2.415136,1.318708 3.310172,0.910957 0.481922,-0.219549 1.1829,-0.62948 1.557728,-0.910957 0.505849,-0.379868 0.857163,-0.395224 1.363012,-0.05958 1.554251,1.031286 0.713225,3.019722 -1.739935,4.113716 -1.549979,0.691217 -2.686599,0.686715 -4.198903,-0.01663 z M 70.032038,25.992691 c -0.446153,-0.470077 -0.283351,-4.050809 0.207695,-4.568189 1.639587,-1.727515 3.486811,1.603302 2.245006,4.048075 -0.387648,0.76317 -1.914681,1.086988 -2.452701,0.520114 z m 12.461825,0 c -0.446153,-0.470077 -0.283351,-4.050809 0.207696,-4.568189 1.639586,-1.727515 3.486811,1.603302 2.245005,4.048075 -0.387648,0.76317 -1.914681,1.086988 -2.452701,0.520114 z m -9.055304,62.571606 c 0.764635,-0.941208 1.74968,-2.723495 2.188994,-3.960636 0.855695,-2.409693 1.427354,-7.898753 1.006581,-9.665157 L 76.377922,73.86293 h -5.402964 c -5.7137,0 -5.875727,0.05581 -5.875727,2.024029 0,0.399278 -0.440834,1.599515 -0.979628,2.667195 -0.836103,1.656821 -0.924282,2.161735 -0.601856,3.446222 0.207778,0.827744 0.467167,1.972711 0.576422,2.544372 0.158978,0.831834 0.563411,1.142181 2.025354,1.554159 1.280811,0.360935 2.303245,1.045051 3.421309,2.289213 0.877028,0.975941 1.799993,1.799869 2.051041,1.83095 0.251043,0.03106 1.082052,-0.713565 1.846686,-1.654773 z m 2.876314,-18.065961 c 0.485108,-0.511123 0.65765,-5.482971 0.230937,-6.654597 -0.197855,-0.543259 -1.018657,-0.649034 -5.036372,-0.649034 -4.239552,0 -4.822139,0.08384 -4.989645,0.718054 -0.367737,1.392301 -0.698213,6.239344 -0.453813,6.655995 0.363457,0.619627 9.654562,0.555786 10.248893,-0.07042 z M 84.5542,60.044144 c 3.464274,-1.001939 5.898509,-2.539267 8.584137,-5.421275 3.826034,-4.105806 6.026971,-9.122517 4.642303,-10.581442 -0.300794,-0.316925 -1.039227,-0.05017 -2.596877,0.938096 -1.197114,0.759521 -2.738358,1.491993 -3.424989,1.627713 -0.838443,0.165727 -1.616213,0.765482 -2.368377,1.826302 -1.521029,2.145191 -4.796553,4.347154 -7.36881,4.953671 l -2.123939,0.500808 v 3.617295 3.617295 l 1.265654,-0.231898 c 0.69611,-0.127547 2.222014,-0.508501 3.390898,-0.846565 z m -8.059117,-0.234549 c 0.274647,-0.842359 -0.413596,-2.834243 -1.33722,-3.87012 -2.40646,-2.698929 -7.103801,-1.432582 -7.955976,2.144834 -0.493975,2.073698 -0.15094,2.238182 4.667729,2.238182 3.217783,0 4.504766,-0.142708 4.625467,-0.512896 z m 5.798947,-9.965209 c 2.128472,-0.764136 4.470824,-2.719852 4.071963,-3.399828 -0.175929,-0.299925 -1.371739,-0.483139 -3.15334,-0.483139 -3.294669,0 -4.093869,0.513031 -4.093869,2.627978 0,2.111766 0.37542,2.260149 3.175246,1.254989 z"
       id="path83935"
       inkscape:connector-curvature="0" />
    <path
       style="fill:#516658;stroke-width:0.39973783"
       d="M 32.099794,96.21938 C 26.708001,94.985149 21.253296,90.487003 18.88445,85.32153 17.589535,82.497856 16.95622,79.699179 15.80382,71.707924 15.148478,67.163498 15.146433,66.801915 15.7683,65.427917 c 1.296743,-2.865128 4.65762,-3.304638 7.02684,-0.91892 1.212338,1.220782 1.236743,1.225944 4.457525,0.943305 2.782074,-0.244138 3.344666,-0.182976 3.991679,0.433963 1.130028,1.077507 0.929869,2.173155 -0.99928,5.46994 -0.963844,1.647145 -1.752444,3.263446 -1.752444,3.591777 0,1.639231 3.157726,5.480009 4.505433,5.480009 0.476021,0 0.536007,-0.38127 0.324408,-2.061926 -0.209653,-1.665195 -0.125692,-2.217829 0.436376,-2.872214 0.874071,-1.017634 1.868625,-1.011734 4.035019,0.02392 1.298306,0.620669 1.834738,0.704768 2.239234,0.351063 1.126226,-0.984809 0.562386,-2.192394 -2.383033,-5.103777 -3.086094,-3.050436 -3.446048,-3.931299 -2.245018,-5.493923 0.658785,-0.857122 1.206881,-1.045063 6.036196,-2.069795 1.231579,-0.261327 2.239235,-0.644853 2.239235,-0.852281 0,-0.207427 -1.095278,-0.905514 -2.433951,-1.551299 -5.044075,-2.433299 -8.851367,-6.39741 -11.489099,-11.962313 -1.780928,-3.757279 -2.034175,-7.336993 -0.656589,-9.281069 1.377016,-1.943272 2.733946,-2.744932 4.925046,-2.909666 3.187516,-0.239647 4.774952,0.922968 6.777366,4.963646 0.880683,1.777133 1.844527,3.365683 2.141876,3.530111 0.297349,0.164428 1.94259,-0.183229 3.656091,-0.772573 2.710103,-0.932116 3.129707,-1.204999 3.224983,-2.097324 0.09498,-0.889545 -0.344678,-1.320911 -3.310172,-3.247744 -4.48658,-2.915161 -4.782712,-3.208561 -4.782712,-4.738595 0,-1.933125 0.620491,-2.484195 4.673185,-4.150345 2.034782,-0.836543 3.905745,-1.725413 4.157694,-1.975267 0.251949,-0.249853 0.825979,-1.6165 1.275624,-3.036993 0.73139,-2.310575 0.775449,-2.936346 0.418132,-5.938823 -0.653228,-5.488973 -0.556071,-6.675919 0.626697,-7.656177 0.564354,-0.467728 1.309142,-0.850061 1.655086,-0.84963 0.345945,4.52e-4 2.100573,0.933313 3.899177,2.07307 4.860096,3.079798 5.098156,2.994935 8.045732,-2.8681584 1.875618,-3.73083 2.581646,-4.7705094 3.445629,-5.0739479 1.89012,-0.6638271 2.693109,0.1265632 5.04015,4.961067 l 2.180558,4.4915733 2.400066,0.286098 c 5.098335,0.607744 9.004549,3.071812 11.617061,7.328125 0.890966,1.451563 2.039834,2.840784 2.553043,3.087158 1.534923,0.736862 4.093335,3.396629 4.930712,5.126047 1.028287,2.123704 1.324143,5.414534 0.723821,8.051149 -0.409935,1.80045 -0.395191,2.224495 0.09798,2.817665 1.086264,1.30653 1.842774,3.320761 1.834204,4.88362 -0.0247,4.494867 -6.153146,12.743235 -11.598196,15.610074 -2.105223,1.108408 -4.652907,1.927609 -8.838433,2.841974 l -1.557728,0.3403 -0.107117,6.692436 c -0.102098,6.378794 -0.066,6.753282 0.770222,7.990627 0.482538,0.714004 1.151894,2.484761 1.487459,3.935016 l 0.610116,2.636828 1.850448,0.495047 c 2.164382,0.57903 3.958351,2.206895 4.970512,4.510291 0.993628,2.261229 0.928768,3.734634 -0.217572,4.942445 l -0.955876,1.007142 -26.59644,-0.03262 C 40.296065,96.782461 34.0021,96.654833 32.099794,96.21938 Z m 12.748971,-2.598225 c 0,-0.191003 -0.305796,-0.975733 -0.679546,-1.743845 -1.015671,-2.087353 -0.957393,-8.608272 0.09682,-10.833845 0.843761,-1.781281 2.068297,-2.311352 2.900075,-1.255375 0.405722,0.515083 0.381636,0.933786 -0.131435,2.284843 -0.835848,2.201019 -0.830672,7.01357 0.0095,8.879159 0.388453,0.862505 1.219625,1.728782 2.126362,2.216172 1.3486,0.724902 2.333748,0.800166 10.473298,0.800166 9.883758,0 9.963097,-0.02183 8.787098,-2.41792 -0.770908,-1.570712 -2.432677,-2.505876 -4.452898,-2.505876 -2.074205,0 -2.773181,-0.814437 -2.773181,-3.231274 0,-2.5727 -1.495146,-5.68799 -3.372349,-7.026634 -1.450412,-1.034297 -3.018698,-1.180489 -7.92118,-0.738389 -1.28076,0.115496 -1.363012,0.04863 -1.363012,-1.108035 0,-1.107001 0.196066,-1.303895 1.94716,-1.955403 2.518127,-0.936888 5.32488,-0.694941 7.902324,0.68119 1.085191,0.579396 2.083442,1.241605 2.218333,1.471567 0.377714,0.643934 0.909947,0.498452 1.35066,-0.369186 0.219951,-0.433019 0.853607,-4.910596 1.408124,-9.950171 1.104417,-10.03715 1.613257,-11.894455 3.722499,-13.587416 2.10081,-1.686195 4.600111,-2.1716 6.972216,-1.354114 1.081047,0.372555 2.133608,0.567931 2.339022,0.434168 0.205418,-0.133763 0.373485,-1.717839 0.373485,-3.520169 0,-2.932162 0.100578,-3.38294 0.95588,-4.284107 0.925489,-0.975123 1.132854,-1.007213 6.522987,-1.009428 3.061909,-0.0013 6.268084,-0.204033 7.124834,-0.450611 4.167413,-1.199402 6.641631,-5.677332 5.583443,-10.105134 -0.486533,-2.035819 -2.698293,-4.722148 -4.876347,-5.922641 -0.682032,-0.375922 -1.710098,-1.483776 -2.284588,-2.461898 -1.54895,-2.637234 -3.630827,-4.789873 -5.821717,-6.019596 l -1.94716,-1.092919 H 72.303671 62.56787 l -2.031499,1.128332 c -2.703063,1.501328 -4.672464,3.645776 -5.861688,6.382684 -0.845492,1.94584 -1.018525,3.108379 -1.287783,8.652128 -0.171078,3.52234 -0.67205,8.342999 -1.113269,10.712576 -0.441219,2.369576 -0.802747,4.439688 -0.803395,4.600245 -6.62e-4,0.160557 0.676921,0.484304 1.50571,0.719444 1.713527,0.486147 3.555728,1.864806 3.555728,2.661021 0,0.294496 -0.276917,0.777594 -0.615369,1.073547 -0.502391,0.43931 -0.841999,0.442022 -1.849802,0.01477 -0.678938,-0.287833 -2.523832,-0.772396 -4.099763,-1.076806 -5.601808,-1.082057 -9.184887,-3.923588 -11.380252,-9.025014 -0.615451,-1.430139 -1.51253,-2.890672 -1.993508,-3.245629 -2.292415,-1.691778 -5.763821,0.219574 -5.763821,3.173553 0,2.348888 2.877575,7.846171 5.60668,10.710934 3.624224,3.804375 9.405903,6.374129 14.377314,6.390205 2.476417,0.008 3.302068,-0.520031 4.215648,-2.696082 0.775281,-1.846649 1.663626,-2.298465 2.593283,-1.318953 1.127059,1.1875 -0.223309,4.407934 -2.549308,6.079731 -1.267792,0.911214 -1.775032,1.011064 -4.805723,0.946021 l -3.388325,-0.07272 -2.972957,9.602908 c -1.817241,5.869851 -3.319129,10.026946 -3.86345,10.693689 -0.756389,0.926515 -1.183543,1.083826 -2.836427,1.044588 -2.462411,-0.05845 -4.76989,-0.912581 -6.976937,-2.58256 -2.126497,-1.609031 -2.347167,-1.948133 -6.214858,-9.550371 -3.254991,-6.397927 -3.988594,-7.330211 -5.159975,-6.557438 -1.028694,0.678643 -1.010927,2.288671 0.101713,9.217055 0.75762,4.717678 1.320171,6.980942 2.207069,8.879504 2.009948,4.302647 6.874137,8.465577 11.125036,9.521165 1.891528,0.469705 12.560771,0.55311 12.560771,0.09819 z M 86.598706,39.122113 c -1.448862,-0.752369 -2.137561,-1.819369 -1.790098,-2.773404 0.293246,-0.805166 1.659872,-0.813733 2.660039,-0.01667 0.415765,0.331335 1.214681,0.602426 1.77537,0.602426 0.560688,0 1.359604,-0.271091 1.77537,-0.602426 1.630984,-1.299769 3.3942,-0.320871 2.520451,1.399298 -0.510842,1.005707 -2.769641,2.077354 -4.354676,2.065999 -0.717287,-0.0051 -1.88119,-0.308987 -2.586456,-0.675218 z M 70.383609,25.620639 c -0.721832,-0.76054 -0.810124,-3.083842 -0.143876,-3.78582 0.659741,-0.695121 1.742658,-0.611237 2.022325,0.156653 0.130012,0.356969 0.236381,1.273684 0.236381,2.037146 0,1.729726 -1.157287,2.600918 -2.11483,1.592021 z m 12.462596,8.2e-4 c -0.722466,-0.761218 -0.811206,-3.084333 -0.144646,-3.78664 0.65974,-0.695121 1.742657,-0.611237 2.022324,0.156653 0.396535,1.088766 0.263906,3.261003 -0.230937,3.782383 -0.615871,0.648898 -0.91226,0.621468 -1.646741,-0.152403 z m 4.06122,67.376515 c 0,-2.168821 -2.809939,-4.363656 -5.586574,-4.363656 -1.631039,0 -2.107291,-0.560546 -2.270409,-2.672259 l -0.126374,-1.636063 -1.107296,2.377307 c -0.609013,1.307523 -2.073655,3.47707 -3.254764,4.821217 l -2.147464,2.44391 h 7.246442 7.246439 z M 73.999236,88.106027 c 2.015276,-3.086182 2.477458,-4.713533 2.688581,-9.466531 0.156287,-3.518401 0.08464,-4.531144 -0.340648,-4.814935 -0.296206,-0.197662 -2.737875,-0.362211 -5.425929,-0.365666 -5.140281,-0.0066 -5.822009,0.210332 -5.822009,1.852665 0,0.480804 -0.443007,1.782533 -0.984453,2.89273 -0.941402,1.930267 -0.963502,2.135183 -0.50532,4.685599 0.263529,1.466881 0.643077,2.786011 0.84344,2.931398 0.200367,0.145392 1.058305,0.38127 1.906531,0.524179 1.16416,0.196144 1.986325,0.74708 3.353827,2.247418 2.094179,2.297603 2.497658,2.251771 4.28598,-0.486857 z M 38.154694,80.143826 c 0.07845,-0.577897 -0.172889,-1.056974 -0.714859,-1.362582 -1.048265,-0.591102 -1.110825,-0.508152 -0.87064,1.154388 0.224874,1.556564 1.381831,1.708483 1.585499,0.208194 z m 38.5465,-12.783146 c 0.07212,-2.172092 -0.05216,-3.635465 -0.33976,-4.000585 -0.604963,-0.76803 -8.473773,-0.820546 -9.41142,-0.06281 -0.614594,0.496667 -1.507639,6.111014 -1.151243,7.237541 0.107865,0.340952 1.680688,0.445801 5.470052,0.364644 l 5.318653,-0.113912 z m -49.001141,2.42606 c 0.575591,-1.133174 0.519021,-1.257923 -0.570446,-1.257923 -1.001325,0 -1.147043,0.277235 -0.737199,1.402548 0.318039,0.873243 0.818755,0.817867 1.307645,-0.144625 z m 14.337739,-1.941095 c 0.22593,-0.714254 0.333486,-1.380087 0.239013,-1.479626 -0.263148,-0.277263 -3.658953,0.617879 -3.658953,0.964502 0,0.559352 2.44433,2.480383 2.728824,2.144621 0.154183,-0.181967 0.465185,-0.915239 0.691116,-1.629497 z M 84.5542,60.454461 c 4.358406,-1.260537 7.905151,-3.78482 10.571837,-7.524176 3.172867,-4.449142 4.132166,-7.505725 2.90301,-9.249761 -0.472923,-0.671021 -0.672281,-0.714757 -1.265654,-0.277666 -2.399361,1.767416 -3.215829,2.228396 -4.720676,2.665301 -1.204587,0.349729 -2.071681,0.991615 -3.065169,2.269053 -1.838614,2.364116 -3.902569,3.749774 -6.84914,4.598235 l -2.425476,0.698411 -0.114154,3.412597 c -0.06278,1.876931 -0.02566,3.655623 0.08254,3.952655 0.218238,0.599214 1.373398,0.470362 4.882886,-0.544649 z m -7.845736,-1.23257 c 0.293722,-2.173807 -2.39033,-5.049341 -4.716154,-5.052611 -1.280912,-0.0016 -2.914116,0.818015 -3.887696,1.951502 -0.782435,0.910947 -1.535059,3.310432 -1.211414,3.862184 0.117519,0.200349 2.346807,0.312542 4.953973,0.249321 4.536552,-0.110014 4.745502,-0.153442 4.861291,-1.010396 z m 6.30464,-9.602104 c 1.975869,-0.94381 3.504889,-2.302486 3.504889,-3.114416 0,-0.725558 -6.248091,-0.772043 -6.931891,-0.05157 -0.494473,0.520991 -0.647606,3.284053 -0.207695,3.747554 0.467088,0.492142 1.850183,0.270842 3.634697,-0.581566 z M 48.353653,47.602684 c 0,-0.225674 -0.252524,-0.410316 -0.561165,-0.410316 -0.308641,0 -0.669472,0.184642 -0.801847,0.410316 -0.132375,0.225674 0.120149,0.410317 0.561165,0.410317 0.441016,0 0.801847,-0.184643 0.801847,-0.410317 z m 1.701707,-11.18112 c 0.12915,-0.507766 0.237211,-1.720384 0.240136,-2.694706 0.005,-1.651093 -0.05424,-1.751634 -0.870905,-1.479276 -1.565797,0.522189 -4.186394,1.779727 -4.186394,2.008911 0,0.246171 3.940714,3.034229 4.33569,3.067504 0.13566,0.01143 0.352323,-0.394666 0.481473,-0.902433 z m 6.655863,-19.384045 c 0.634194,-0.546082 1.072305,-1.056931 0.97358,-1.135221 -0.597957,-0.474189 -2.327429,-1.535237 -2.502389,-1.535237 -0.114629,0 -0.208416,0.830891 -0.208416,1.846424 0,1.015533 0.131433,1.839783 0.292074,1.831667 0.16064,-0.0081 0.810957,-0.46155 1.445151,-1.007633 z m 16.3618,-3.474784 c 0.220196,-0.375394 -1.943562,-5.3504187 -2.327028,-5.3504187 -0.383466,0 -2.547224,4.9750247 -2.327028,5.3504187 0.127115,0.216705 1.174278,0.39401 2.327028,0.39401 1.15275,0 2.199913,-0.177305 2.327028,-0.39401 z"
       id="path83933"
       inkscape:connector-curvature="0" />
    <path
       style="fill:#0b100d;stroke-width:0.39973783"
       d="m 34.139384,96.563693 c -0.642563,-0.08927 -1.518785,-0.320908 -1.94716,-0.51475 -0.428376,-0.193846 -1.615329,-0.665841 -2.637675,-1.048883 -4.486397,-1.68091 -8.463122,-5.554699 -10.639611,-10.364205 -1.247326,-2.756284 -3.583227,-16.392536 -3.132314,-18.28546 0.801144,-3.363191 4.523784,-4.153128 6.861796,-1.456057 l 1.08703,1.253972 3.355942,-0.294542 c 5.165612,-0.453367 5.668463,0.546152 2.768239,5.502437 -0.963844,1.647145 -1.752444,3.263446 -1.752444,3.591777 0,1.767159 3.546946,5.890325 5.06714,5.890325 0.717456,0 0.76068,-0.18346 0.530145,-2.250142 -0.39547,-3.54528 0.944243,-4.390643 4.191787,-2.645022 1.921073,1.032619 2.514056,0.846109 2.879212,-0.905593 0.265587,-1.274061 0.128055,-1.49365 -2.689303,-4.293849 -4.415424,-4.388539 -4.08228,-5.489483 2.079765,-6.873024 2.225547,-0.499696 4.114078,-1.122306 4.196737,-1.383579 0.08358,-0.264199 -1.373149,-1.239832 -3.282055,-2.198126 -8.466358,-4.250221 -14.915896,-15.507763 -11.734476,-20.482298 1.739775,-2.720349 5.338294,-3.659964 8.113493,-2.118528 1.025587,0.569645 1.784864,1.596642 3.10938,4.205743 2.043591,4.025571 2.296997,4.141551 6.143613,2.811891 3.129141,-1.081652 3.592188,-1.424444 3.592188,-2.659282 0,-0.749907 -0.814739,-1.480624 -3.991678,-3.580028 -3.698347,-2.443962 -4.000221,-2.741938 -4.107927,-4.054882 -0.152608,-1.860299 0.409173,-2.332466 5.049903,-4.244355 l 3.765359,-1.551253 1.000642,-2.969808 c 0.915976,-2.718528 0.969093,-3.225866 0.627775,-5.996089 -0.642434,-5.214175 -0.525441,-7.193218 0.468601,-7.926811 1.27443,-0.940516 1.73278,-0.818943 5.362255,1.422297 3.131525,1.933746 4.705726,2.41111 5.69877,1.728105 0.241062,-0.1658 1.320108,-2.147878 2.397881,-4.404618 2.040721,-4.2730597 3.221798,-5.9495867 4.191348,-5.9495867 0.902247,0 2.164443,1.8000141 4.266006,6.0837467 l 1.94716,3.969003 2.246197,0.293899 c 5.477459,0.716683 9.03589,2.90165 11.642935,7.149056 0.90032,1.466803 2.128024,2.934479 2.728229,3.261502 4.594815,2.503495 6.660921,7.587307 5.336243,13.130219 -0.363375,1.520488 -0.337996,1.956957 0.147754,2.541015 2.742194,3.297155 2.413194,6.693447 -1.189158,12.275997 -3.710894,5.750756 -8.936706,9.209407 -15.63119,10.345339 -1.340982,0.227537 -2.683491,0.628243 -2.983357,0.890456 -0.424524,0.371217 -0.545209,1.888173 -0.545209,6.852943 0,6.05572 0.04878,6.463898 0.970589,8.121195 0.533822,0.95975 1.16765,2.730072 1.408498,3.934051 0.553955,2.769139 0.78425,3.052417 2.750897,3.38376 2.933654,0.494267 5.945954,4.912652 5.244478,7.692504 -0.589764,2.337162 1.243768,2.187486 -27.397806,2.236589 -14.519081,0.02489 -26.924061,-0.02778 -27.566624,-0.117051 z m 11.211938,-2.44091 c 0.133615,-0.14078 -0.102506,-0.969401 -0.524712,-1.841377 -1.530504,-3.160917 -1.315346,-9.708265 0.392036,-11.929869 0.601626,-0.782822 0.802825,-0.840804 1.327015,-0.382436 0.552728,0.483324 0.557434,0.692688 0.04463,1.985804 -0.347124,0.875336 -0.573235,2.77753 -0.573235,4.822419 0,2.827745 0.143755,3.603628 0.883985,4.771109 1.705716,2.690227 2.461349,2.849697 12.940852,2.731009 l 9.346369,-0.105854 0.12498,-1.14754 c 0.09645,-0.885602 -0.226427,-1.517793 -1.414553,-2.769635 -1.341574,-1.413515 -1.767192,-1.622095 -3.309978,-1.622095 -2.279887,0 -2.994374,-0.744433 -2.994374,-3.119861 0,-5.964001 -5.425972,-9.909291 -10.875489,-7.907703 -0.938397,0.34467 -1.36931,0.341814 -1.704446,-0.01128 -0.725149,-0.764038 0.186862,-1.809705 2.10398,-2.412324 2.520092,-0.792153 5.301918,-0.312558 7.956607,1.371741 1.223354,0.776171 2.286628,1.411217 2.362836,1.411217 0.07621,0 0.402941,-0.425141 0.72608,-0.944757 0.375958,-0.604556 0.946141,-4.187566 1.583419,-9.950171 1.110267,-10.039592 1.316689,-10.993179 2.726418,-12.595042 2.210513,-2.511784 5.995804,-3.287093 8.705036,-1.78298 1.741618,0.966914 1.979257,0.533001 1.986879,-3.627906 0.0051,-2.77323 0.131526,-3.396911 0.852708,-4.205742 0.809777,-0.908191 1.0946,-0.949758 6.522986,-0.951946 7.050656,-0.0028 8.268254,-0.33181 10.599639,-2.863777 1.403412,-1.524159 1.905421,-2.442393 2.2436,-4.10384 0.797678,-3.918908 -0.847556,-7.659298 -4.219531,-9.592977 -1.417428,-0.812832 -2.27956,-1.740572 -3.458488,-3.721684 -1.804616,-3.032533 -4.43322,-5.27241 -7.250944,-6.178646 -2.723944,-0.876074 -17.542947,-0.880617 -20.337445,-0.0062 -3.571139,1.117387 -6.922583,4.50595 -8.25094,8.342329 -0.287432,0.830108 -0.668254,4.371253 -0.846271,7.8692 -0.178018,3.497947 -0.687636,8.235331 -1.132484,10.527521 -1.031237,5.313701 -1.026734,5.411508 0.262123,5.693461 1.58259,0.346213 3.525505,1.440707 3.775369,2.126768 0.487701,1.339084 -0.726307,1.766277 -2.231341,0.785173 -0.474387,-0.309239 -2.146547,-0.774944 -3.715911,-1.034899 -5.304865,-0.878705 -8.415229,-3.285321 -10.817804,-8.370172 -1.700036,-3.597987 -2.54087,-4.372603 -4.759426,-4.384616 -2.398269,-0.01299 -3.961723,1.649438 -3.961723,4.212506 0,2.670511 2.25907,7.14062 5.357689,10.60147 3.842437,4.291622 9.581384,6.923666 15.096453,6.923666 2.085389,0 2.501828,-0.138273 3.398294,-1.12837 0.561916,-0.620603 1.208567,-1.64957 1.437008,-2.286594 0.278826,-0.777542 0.638965,-1.109812 1.09571,-1.01093 0.92371,0.19998 0.803772,2.54969 -0.202777,3.97263 -1.449937,2.04976 -3.084905,2.710004 -6.710775,2.710004 h -3.310172 l -3.215618,10.05275 c -1.814137,5.671405 -3.501428,10.276286 -3.871394,10.565646 -1.174985,0.918977 -4.388833,0.61565 -6.932541,-0.654303 -3.237028,-1.616093 -4.649279,-3.458081 -8.208334,-10.706064 -3.285249,-6.690384 -4.015311,-7.527783 -5.81122,-6.66563 -1.260779,0.605253 -1.259927,1.689354 0.0076,9.717091 1.147271,7.265898 2.38915,10.37475 5.419243,13.566248 4.153883,4.375145 7.170721,5.447138 15.440186,5.486458 3.12357,0.01485 5.788539,-0.08818 5.922154,-0.22896 z M 87.102141,39.030768 c -1.111985,-0.51138 -2.26357,-1.96721 -1.962325,-2.480769 0.357814,-0.610009 1.433495,-0.521162 2.328831,0.192352 0.415765,0.331334 1.214681,0.602425 1.77537,0.602425 0.560688,0 1.359604,-0.271091 1.77537,-0.602425 1.781021,-1.419339 3.153761,-0.301373 1.617486,1.317288 -1.069411,1.126761 -4.056596,1.650895 -5.534732,0.971129 z M 70.55318,25.242858 c -0.244463,-0.310355 -0.388708,-1.176431 -0.320546,-1.924613 0.09504,-1.043262 0.305467,-1.360332 0.902793,-1.360332 0.633964,0 0.800696,0.314755 0.896204,1.691867 0.126452,1.823276 -0.643568,2.652998 -1.478451,1.593078 z m 12.461825,0 c -0.244462,-0.310355 -0.388708,-1.176431 -0.320546,-1.924613 0.09504,-1.043262 0.305467,-1.360332 0.902793,-1.360332 0.633965,0 0.800696,0.314755 0.896204,1.691867 0.126453,1.823276 -0.643567,2.652998 -1.478451,1.593078 z m 4.208124,68.035289 c 0.329351,-2.437505 -2.657344,-5.025026 -5.823446,-5.045135 -1.602325,-0.01018 -1.891467,-0.455751 -1.891467,-2.914785 0,-2.08835 -0.84129,-2.126616 -1.517523,-0.06902 -0.739376,2.249719 -2.921944,5.615536 -4.50368,6.945289 -2.490126,2.093426 -2.139318,2.213287 6.118561,2.090529 7.371162,-0.109575 7.498592,-0.126419 7.617555,-1.006878 z M 73.620654,89.207566 c 2.323659,-2.781382 3.252143,-5.674756 3.465945,-10.800683 0.229313,-5.497828 0.383119,-5.364586 -6.192503,-5.364586 -5.32708,0 -6.184297,0.301837 -6.184297,2.177582 0,0.488407 -0.450122,1.82537 -1.000268,2.971026 -0.981081,2.043064 -0.989804,2.137617 -0.454834,4.929688 0.495841,2.587829 0.648763,2.878759 1.681774,3.19959 2.763383,0.858242 4.504666,1.960758 5.278066,3.341874 0.44171,0.788788 1.033771,1.434159 1.315692,1.434159 0.281922,0 1.222611,-0.849893 2.090425,-1.88865 z m -35.2196,-8.050242 c 0.933753,-1.404611 0.732085,-2.155371 -0.783527,-2.916877 -1.723774,-0.866092 -2.156557,-0.614974 -1.852807,1.075082 0.50786,2.825721 1.514659,3.529094 2.636334,1.841795 z M 28.26312,70.074627 c 0.540618,-0.955196 0.841849,-1.885379 0.669402,-2.067076 -0.514559,-0.542151 -3.555359,0.141416 -3.555359,0.799243 0,0.828843 1.119267,3.004554 1.545656,3.004554 0.196547,0 0.799682,-0.781525 1.340301,-1.736721 z m 48.487111,0.751506 c 0.28987,-0.368004 0.412144,-1.881567 0.33976,-4.205742 l -0.113083,-3.630844 -5.344531,-0.114089 c -6.124009,-0.130726 -5.459136,-0.623984 -6.067939,4.501696 -0.483717,4.072558 -0.550769,4.023878 5.542658,4.023878 3.9757,0 5.296268,-0.134535 5.643135,-0.574899 z M 42.310885,69.224152 c 0.295809,-0.745939 0.663171,-1.882413 0.81636,-2.525497 l 0.278525,-1.169246 -2.240194,0.277411 c -1.232107,0.152576 -2.592211,0.475905 -3.022452,0.718513 -0.741826,0.418305 -0.695263,0.534494 0.900899,2.248082 0.925735,0.993844 1.918476,1.806984 2.206092,1.806984 0.287615,0 0.764962,-0.610313 1.06077,-1.356247 z M 85.545573,60.702595 C 90.34565,59.140492 95.19779,54.758999 97.779619,49.655214 99.051368,47.14121 99.26688,45.432907 98.527874,43.723986 97.9472,42.381197 97.35251,42.4076 95.341436,43.865457 c -0.900262,0.652612 -2.421414,1.425086 -3.38034,1.716608 -1.273494,0.387154 -2.253281,1.121308 -3.634546,2.723372 -2.152418,2.496484 -3.36842,3.267846 -6.676458,4.235166 l -2.336592,0.683259 -0.112873,3.82627 c -0.06208,2.104451 -0.01624,4.091572 0.101844,4.415828 0.259677,0.71299 2.577285,0.42961 6.243102,-0.763365 z m -8.531969,-1.003543 c 0.487491,-2.046486 -1.654568,-5.171135 -3.963593,-5.781743 -2.597235,-0.686824 -5.588513,1.268021 -6.342418,4.144868 -0.654121,2.496073 -0.311176,2.67063 5.246962,2.67063 h 4.812799 z m 6.716744,-10.015723 c 1.877842,-1.014733 3.337102,-2.690699 3.043852,-3.495875 -0.336925,-0.925098 -6.553561,-0.918046 -7.432883,0.0085 -0.6235,0.656937 -0.815346,2.83284 -0.359999,4.08309 0.312843,0.858969 2.584396,0.574057 4.74903,-0.595648 z M 48.879626,47.9175 c 0.314721,-1.268038 -0.242403,-1.713707 -1.562836,-1.250185 -1.278919,0.448943 -1.670482,1.597714 -0.640454,1.878966 1.478297,0.403652 1.982776,0.259685 2.20329,-0.628781 z m 1.949683,-12.909956 c 0.142974,-1.782085 0.09664,-3.322979 -0.10635,-3.536855 -0.409082,-0.43102 -5.635294,1.588703 -6.302404,2.435628 -0.393787,0.499929 1.055357,1.709502 4.517246,3.770458 1.431212,0.85204 1.6317,0.569119 1.891508,-2.669231 z M 56.90118,17.752171 c 0.851481,-0.620603 1.5548,-1.35139 1.562927,-1.623969 0.01548,-0.519036 -3.033675,-2.581773 -3.816399,-2.581773 -0.494166,0 -0.597685,2.005178 -0.209179,4.051873 0.297491,1.567223 0.505654,1.58023 2.462651,0.153869 z m 17.154987,-3.788638 c 0,-0.800935 -2.906748,-6.5718494 -3.310172,-6.5718494 -0.403424,0 -3.310172,5.7709144 -3.310172,6.5718494 0,0.232844 1.400137,0.403528 3.310172,0.403528 1.910036,0 3.310172,-0.170684 3.310172,-0.403528 z"
       id="path83931"
       inkscape:connector-curvature="0" />
  </g>
  <text
     xml:space="preserve"
     style="font-style:normal;font-variant:normal;font-weight:normal;font-stretch:normal;font-size:12px;line-height:1.25;font-family:'Agency FB';-inkscape-font-specification:'Agency FB';letter-spacing:0px;word-spacing:0px;fill:#000000;fill-opacity:1;stroke:none"
     x="149.19952"
     y="48.381207"
     id="text83949"><tspan
       sodipodi:role="line"
       id="tspan83947"
       x="149.19952"
       y="59.591652"></tspan></text>
  <flowRoot
     xml:space="preserve"
     id="flowRoot83951"
     style="font-style:normal;font-variant:normal;font-weight:normal;font-stretch:normal;font-size:48px;line-height:1.25;font-family:Magneto;-inkscape-font-specification:Magneto;letter-spacing:0px;word-spacing:0px;fill:#000000;fill-opacity:1;stroke:none"
     transform="matrix(2.3476464,0,0,1.9556819,-177.51794,-44.20814)"><flowRegion
       id="flowRegion83953"
       style="font-style:normal;font-variant:normal;font-weight:normal;font-stretch:normal;font-size:48px;font-family:Magneto;-inkscape-font-specification:Magneto"><rect
         id="rect83955"
         width="264.45795"
         height="60.104076"
         x="118.79394"
         y="18.68272"
         style="font-style:normal;font-variant:normal;font-weight:normal;font-stretch:normal;font-size:48px;font-family:Magneto;-inkscape-font-specification:Magneto" /></flowRegion><flowPara
       id="flowPara83957">Gojira</flowPara></flowRoot></svg>
